<?xml version="1.0" encoding="utf-8"?>
<!-- Generator: Adobe Illustrator 24.0.1, SVG Export Plug-In . SVG Version: 6.00 Build 0)  -->
<svg version="1.1" id="Слой_1" xmlns="http://www.w3.org/2000/svg" xmlns:xlink="http://www.w3.org/1999/xlink" x="0px" y="0px"
	 viewBox="0 0 1600 1600" style="enable-background:new 0 0 1600 1600;" xml:space="preserve">
<style type="text/css">
	.st0{fill:#020203;}
</style>
<path class="st0" d="M349.53,899.51h1200v-800c0-55-45-100-100-100h-100v600l-200-200l-200,200v-600h-600V899.51z M49.53,299.51v738
	c52-60,122-101,200-122v-897C133.53,59.51,49.53,169.51,49.53,299.51z M49.53,1299.51c0,166,134,300,300,300h1200v-200h-1200
	c-55,0-100-45-100-100s45-100,100-100h1200v-200h-1200C184.53,999.51,49.53,1134.51,49.53,1299.51z"/>
</svg>
