<?xml version="1.0" encoding="utf-8"?>
<!-- Generator: Adobe Illustrator 24.0.1, SVG Export Plug-In . SVG Version: 6.00 Build 0)  -->
<svg version="1.1" id="Слой_1" xmlns="http://www.w3.org/2000/svg" xmlns:xlink="http://www.w3.org/1999/xlink" x="0px" y="0px"
	 viewBox="0 0 1600 1600" style="enable-background:new 0 0 1600 1600;" xml:space="preserve">
<style type="text/css">
	.st0{fill:#020203;}
</style>
<path class="st0" d="M200,1200h1350V75c0-41.5-33.5-75-75-75l-75,0v650l-100-100l-100,100V0L200,0V1200z M50,125v1120.5
	c26.5-25.5,61.5-41,100-44V3C93,14.5,50,64.5,50,125z M50,1362.5V1475c0,69,56,125,125,125h1375v-100H225c-41.5,0-75-33.5-75-75
	s33.5-75,75-75h1325v-100H162.5C100.5,1250,50,1300.5,50,1362.5z"/>
</svg>
